# xmcd
#
# Track frame offsets:
#	150
#	24637
#	36227
#	49190
#	61185
#	80425
#	92757
#	109450
#	124587
#	137417
#	146955
#	170200
#	198752
#	208760
#	234920
#	244827
#
# Disc length: 3407 seconds
#
# Revision: 7
# Processed by: cddbd v1.5.1PL0 Copyright (c) Steve Scherf et al.
# Submitted via: audiograbber 1.83.01
#
DISCID=e50d4d10
DTITLE=Various Artist - Essential Blues 2 - Disk 1
DYEAR=1996
DGENRE=Blues
TTITLE0=Muddy Waters - Mannish Boy
TTITLE1=John Lee Hooker - Boom Boom
TTITLE2=Howlin' Wolf - Evil Is Goin' On
TTITLE3=Bobby Bland - Turn On Your Love Light
TTITLE4=Fenton Robinson - I Hear Some Blues Downstairs
TTITLE5=Little Walter - Juke
TTITLE6=Clifton Chenier - I'm a Hog For You Baby
TTITLE7=Z.Z. Hill - I Need Someone
TTITLE8=Albert King - Born Under a Bad Sign
TTITLE9=Junior Wells - Hoodoo Man Blues
TTITLE10=Son Seals - Frigidaire Woman
TTITLE11=Buddy Guy - A Man and the Blues
TTITLE12=Otis Spann - Spann's Boogie Woogie
TTITLE13=Lonnie Brooks - Sweet Home Chicago
TTITLE14=James Brown - Messing With the Blues
TTITLE15=Jimmy Reed - Baby What You Want Me To Do
EXTD=
EXTT0=
EXTT1=
EXTT2=
EXTT3=
EXTT4=
EXTT5=
EXTT6=
EXTT7=
EXTT8=
EXTT9=
EXTT10=
EXTT11=
EXTT12=
EXTT13=
EXTT14=
EXTT15=
PLAYORDER=
